<svg version="1.1" id="Layer_1" xmlns="http://www.w3.org/2000/svg" x="0" y="0" viewBox="0 0 156.7 67.52" xml:space="preserve"><style>.st1{fill:#ef7d00}.st2{fill:#63c3d1}</style><path d="M18.94 62.7c-.74 0-1.32.55-1.32 1.39 0 .84.58 1.39 1.32 1.39s1.32-.55 1.32-1.39c-.01-.84-.59-1.39-1.32-1.39zm93.23-11.06c2.3 0 3.45-1.94 3.45-5.82 0-3.91-1.14-5.87-3.42-5.87-2.34 0-3.5 1.96-3.5 5.87 0 1.96.28 3.42.85 4.38.56.95 1.44 1.44 2.62 1.44zM52.41 63.28c-.04.95-.14 1.75-.42 2.16h1.84v-2.69h-1.4l-.02.53zm71.77.91h-.86v1.35h.86c.46 0 .76-.26.76-.72 0-.46-.3-.63-.76-.63zM7.54 40.38c-.27-.23-.59-.38-.95-.47-.36-.09-.74-.13-1.13-.13h-.38c-.14 0-.29.01-.43.03v5.44c.09.04.24.06.46.08.22.02.44.03.67.03.77 0 1.4-.22 1.88-.67.48-.45.73-1.13.73-2.05 0-.54-.08-.99-.23-1.36-.14-.38-.36-.68-.62-.9zm100.13 24.18h1.26L108.3 63zM94.5 62.7c-.74 0-1.32.55-1.32 1.39 0 .84.58 1.39 1.32 1.39.74 0 1.32-.55 1.32-1.39 0-.84-.58-1.39-1.32-1.39zm54.46 1.49h-.86v1.35h.86c.46 0 .76-.26.76-.72 0-.46-.3-.63-.76-.63zM54.01 30.53c.47.3 1.31.15.97-.49-.41-.75-1.83-.07-.97.49zm5.14 32.17c-.74 0-1.32.55-1.32 1.39 0 .84.58 1.39 1.32 1.39s1.32-.55 1.32-1.39c-.01-.84-.58-1.39-1.32-1.39zm-13.78 1.84h-1.09v1h1.09c.4 0 .6-.17.6-.51s-.2-.49-.6-.49zm.38-1.42c0-.31-.19-.48-.58-.48h-.88v.96h.88c.38 0 .58-.16.58-.48z" fill="none"/><path class="st1" d="M27.51 53.31c0-.61-.08-1.29-.24-2.05h-6.76v-3.82h5.19c.16-.77.24-1.47.24-2.1 0-.61-.08-1.31-.24-2.1h-5.19v-2.96h6.59c.14-.83.22-1.53.22-2.13 0-.31-.02-.63-.05-.97-.04-.34-.09-.71-.16-1.1H15.74v19.35h11.52c.16-.75.25-1.46.25-2.12zM12.66 45.8c.39-.84.58-1.9.58-3.18 0-1.44-.24-2.6-.73-3.5-.48-.9-1.12-1.59-1.9-2.09-.78-.49-1.66-.83-2.62-1.01-.97-.18-1.93-.27-2.88-.27-1.29 0-2.36.05-3.22.15-.85.1-1.48.17-1.9.23v19.22c.93.16 1.71.24 2.34.24.32 0 .67-.02 1.05-.05.38-.04.8-.1 1.26-.19v-6.27c.14.04.39.07.74.09.35.03.7.04 1.04.04.86 0 1.7-.11 2.52-.32a5.87 5.87 0 002.18-1.08c.65-.49 1.16-1.16 1.54-2.01zm-4.99-1.13c-.48.45-1.11.67-1.88.67-.23 0-.46-.01-.67-.03-.22-.02-.37-.04-.46-.08V39.8c.14-.02.29-.03.43-.03h.38c.39 0 .77.04 1.13.13.36.09.67.25.94.47s.48.52.63.89c.15.37.23.82.23 1.36 0 .92-.25 1.6-.73 2.05zm35.04-8.58H28.96c-.16.79-.24 1.48-.24 2.07 0 .65.08 1.35.24 2.13h4.49v15.07c.93.16 1.73.24 2.4.24.63 0 1.42-.08 2.37-.24V40.28h4.49c.14-.83.22-1.53.22-2.13 0-.31-.02-.63-.05-.97-.04-.33-.1-.7-.17-1.09z"/><path class="st2" d="M76.09 5.24l2.52 2.45 2.71 2.63V3.6l2.38-2.32A.74.74 0 0083.19 0H72.42c-.55 0-.86.55-.69 1l4.36 4.24zm12.06 16.91a5.553 5.553 0 00-1.64-3.16l-5.19-5.04-.93-.9-3.59-3.49-2.52-2.45-5.63-5.47A5.952 5.952 0 0064.53 0c-1.49 0-2.98.55-4.12 1.65L42.54 18.99a5.555 5.555 0 000 7.99l1.96 1.9h.2v-7.47c0-2.31 1.87-4.18 4.18-4.18h23.37L67.99 13l-8.82.02c-.68 0-1.01-.82-.53-1.3l5.11-5a1.382 1.382 0 011.9 0l1.6 1.56.06.06 2.47 2.39c.08.07.14.16.19.24l6.31 6.25h3.89c2.31 0 4.18 1.87 4.18 4.18v7.36h.32l1.84-1.79c.08-.08.16-.16.23-.24a5.46 5.46 0 001.41-4.58zM51.44 54.33c-6.76-4.83.53-8.65.84-9.01.17-.48 2-4.55 2.69-4.57-.18 1.25.9 2.17.59 2.94 1.38.14 3.22.07 4.5.98-.08-.77 1.64-2.12 2.38-3.06.42 1.43.74 2.64 1.21 3.97.1.3.2.59.29.89v-5.32c0-1.92-1.57-3.48-3.48-3.48H49.47c-1.92 0-3.48 1.57-3.48 3.48v11.13c0 1.92 1.57 3.48 3.48 3.48h3.98c-.6-.36-1.21-.86-2.01-1.43z"/><path class="st2" d="M54.42 46.2c-.99-.13-1.27 1.37-.81 1.91.43.51 1.37.3 1.34-1.38-.25.11-.39.44-.71.16-.29-.25-.06-.51.18-.69zm3.55 1.93c-.26.12-.41.46-.74.17-.31-.27-.07-.54.18-.73-1.04-.13-1.32 1.43-.84 2 .45.53 1.43.31 1.4-1.44zm-5.74 3.86c2.5 1.01 4.1-.61 1.22-1.75-2.47-.97-3.79.71-1.22 1.75zm8.79 2.99c-.82.32-1.55.58-2.19.78h1.62c1.87 0 3.41-1.5 3.48-3.35-.51 1.09-1.43 1.99-2.91 2.57zm.08-22.2c-.38 2.04-1.96 3.44-3.87 3.75 4.02-.46 5.13-2.49 3.87-3.75zm-4.61.84c3.95-.34 1.4-4.68-1.42-4.58l-.23.01c-3.74.31-1.56 4.85 1.65 4.57zm-1.51-3.57c.34.64-.5.79-.97.49-.86-.57.56-1.25.97-.49z"/><path class="st2" d="M63.94 26.46V22c0-.82-.3-1.57-.78-2.16-.64-.8-1.61-1.32-2.71-1.32H49.47c-1.92 0-3.48 1.57-3.48 3.48v10.98c0 1.92 1.57 3.48 3.48 3.48h6.48c-.77-.18-1.51-.42-2.19-.71-5.01-2.07-5.11-5.78-2.72-7.5 2.75-1.98 2.58-3.29 3.4-4.27.17-.2.35-.38.56-.52-.08-.65-.31-1.2-.97-1.37-1.48-.37-3.14 3.35-4.32.48-.57-1.39.04-2.29.98-2.74.86-.41 1.99-.44 2.72-.09.05.02.11.06.17.09.94.51 2.39 1.81 2.45 3.15 1.79-.48 4.11.34 5.5 1.14.94.55 1.77 1.37 2.41 2.34z"/><path class="st2" d="M55.42 26.99c0-.32-.24-.57-.54-.57-.3 0-.54.26-.54.57 0 .32.24.57.54.57.3 0 .54-.25.54-.57zm5.09 2.29c0-.32-.24-.57-.54-.57s-.54.26-.54.57c0 .32.24.57.54.57s.54-.26.54-.57zm11.32 2.64c1.06.64 1.71.45 3.05.29-.27-.69-.51-1.45-1.43-1.43-.48.01-1.91.4-2.28.61l.3.3c.14.11.25.16.36.23zm3.16.56c-.29.05-1.53.2-1.72.28-.4.16-.85.7-.84 1.37 1.26.02 2.28-.78 2.56-1.65z"/><path class="st2" d="M79.73 18.43H68.75c-1.14 0-2.15.56-2.78 1.41-.43.58-.7 1.29-.7 2.07v11.13c0 1.92 1.57 3.48 3.48 3.48h7.38c-.35-.04-.71-.11-1.1-.19-2.75-.59-4.96-1.62-6.29-3.99-.86-1.53.38-1.92.65-2.21-.47-6.9 4.15-8.56 9.51-6.11.41.19 1.29.75 1.63.73.02-.45-.66-1.15-.78-1.83.88-.04 1.53.5 2.01 1.19.76 1.08 1.07 2.52 1.08 2.54.17.24-.04.1.24.15l.14-1.5v-3.4a3.502 3.502 0 00-3.49-3.47zm2.61 15.47c-.54.71-1 1.17-1.77 1.66-.83.53-1.62.85-2.47.98h1.63c1.92 0 3.48-1.57 3.48-3.48v-.76c-.08.19-.15.38-.23.54-.18.37-.41.75-.64 1.06z"/><path class="st2" d="M77.49 27.87c-1.04-.13-1.32 1.43-.84 2 .45.53 1.43.32 1.4-1.44-.26.12-.41.46-.74.17-.31-.27-.07-.54.18-.73zm-5.83-.22c-.99-.13-1.27 1.37-.8 1.91.43.51 1.37.3 1.34-1.38-.25.11-.39.44-.71.16-.3-.25-.07-.51.17-.69zm6.55 28.11h.25c-.23-.22-.4-.6-.56-.85-.21-.33-.4-.82-.52-1.22-.15-.53.05-.31-.53-.31-.28 0-.59.01-.87 0-.14-.01-.24-.04-.39-.05-.14 0-.31.01-.44-.02l-.59-.08c-.53-.06-1.06-.19-1.59-.35l-.66-.23c-.67-.25-.93-.4-1.52-.71.62-.73.97-1.55 1-2.47-.63.94-1.37 1.53-2.29 1.58-.45-.44-.79-.75-1.15-1.26l-.26-.41c-.28-.51-.51-1.06-.38-1.67.08-.37.29-.96.5-1.27.07-.1.12-.14.18-.26L69.4 45c.25-.25.96-.84 1.22-1 .92-.57 1.56-.95 2.6-1.32.2-.07.52-.1.63-.28l.68-1.06c.07-.11.12-.19.18-.27l.37-.5c.3-.39.65-.82 1.07-1.12l.17-.12c.66-.48 1.03-.17 1.63.2.75.47 1.17.97 2.09 1.44.11.05.18.12.28.16l2.53 1.4c.1.07.23.14.34.21v-1.63a3.5 3.5 0 00-3-3.45c-.16-.02-.33-.04-.5-.04H68.71c-1.92 0-3.48 1.57-3.48 3.48v11.14c0 1.92 1.57 3.48 3.48 3.48h9.5z"/><path class="st2" d="M78.6 42.69c.68.19 1.8.76 2.39 1.14.15.1.3.16.44.27l.66.4c.12.07.11.04.15-.09.04-.17.11-.41.14-.57l.16-.58-2.1-1.23c-.41-.21-.94-.5-1.33-.74-.68-.42-1.02-.79-1.74-1.21-.22-.13-.34-.08-.61.07-.29.16-.91.86-1.13 1.17-.04.05-.04.08-.09.14-.12.17-.6.84-.66 1.02.12-.02.26-.1.57-.12.11-.01.2-.05.33-.04.53 0 1.16-.03 1.68.09l1.14.28zm-2.77 6.12l-1.92.53c-.14.06-.09.06-.27.08-.05.27-.32.66-.34.86.22.14.94.42 1.2.5.28.09.21.14.81.23.29.04.79.18 1.15-.16.55-.52.89-1.51.49-1.96-.24-.25-.73-.16-1.12-.08zm7.24 4.31c.01-.11.14-2.29-.08-2.58-1.38 1.3-2.98 1.88-3.51 2.17-.2.1-.42.19-.61.26l.02.02.1.1.12.11c.39.33.98.78.82 1.36-.09.33-.28.91-.6 1.2h.37c1.62 0 2.99-1.13 3.37-2.64zm-12.94-5.34c.07.19.13.37.29.47.39.25.91.08 1.08-.26.11-.22.13-.51.04-.75-.14.02-.24.04-.52.08-.22.47-.12-.12.17-.51-.53-.27-1.3.32-1.06.97z"/><path class="st1" d="M100.97 36.12c-.47-.07-.9-.13-1.31-.16-.4-.04-.77-.05-1.09-.05-.32 0-.68.02-1.06.05-.39.04-.82.09-1.31.16v7.14h-4.77v-7.14c-.47-.07-.9-.13-1.31-.16-.4-.04-.77-.05-1.09-.05-.31 0-.66.02-1.05.05-.4.04-.84.09-1.32.16v19.23c.93.16 1.73.24 2.4.24.63 0 1.42-.08 2.37-.24v-7.87h4.77v7.87c.93.16 1.73.24 2.4.24.63 0 1.42-.08 2.37-.24V36.12zm4.75 16.82c.69.89 1.57 1.58 2.64 2.07 1.07.49 2.34.74 3.81.74 1.47 0 2.74-.25 3.8-.74a7.156 7.156 0 002.63-2.07c.69-.89 1.2-1.94 1.54-3.15.33-1.21.5-2.54.5-3.97 0-1.44-.17-2.77-.5-4-.33-1.23-.84-2.29-1.54-3.19-.69-.9-1.57-1.6-2.63-2.11-1.06-.51-2.33-.77-3.8-.77-1.47 0-2.74.26-3.81.77a7.227 7.227 0 00-2.64 2.11c-.69.9-1.2 1.96-1.54 3.19-.33 1.23-.5 2.56-.5 4s.17 2.76.5 3.97c.34 1.21.85 2.26 1.54 3.15zm6.48-13c2.28 0 3.42 1.96 3.42 5.87 0 3.88-1.15 5.82-3.45 5.82-1.19 0-2.06-.48-2.63-1.44-.57-.96-.85-2.42-.85-4.38.01-3.91 1.18-5.87 3.51-5.87zm29.72 15.41L141 36.12c-.38-.05-.76-.1-1.16-.15-.4-.04-.78-.07-1.16-.07-.36 0-.72.02-1.09.07-.37.05-.73.09-1.09.15l-3.96 10.02-3.83-10.02c-.36-.05-.75-.1-1.17-.15-.42-.04-.81-.07-1.17-.07-.38 0-.79.02-1.23.07-.44.05-.85.09-1.23.15l-.78 19.23c.83.16 1.55.24 2.18.24.68 0 1.4-.08 2.16-.24l.3-11.05 2.64 7.25a7.193 7.193 0 001.73.19c.27 0 .57-.02.89-.05.32-.04.65-.08.97-.13l2.96-7.35.38 11.15c.86.16 1.61.24 2.24.24.57 0 1.04-.03 1.39-.08.34-.06.66-.11.95-.17zm14.78-2.04c0-.61-.08-1.29-.24-2.05h-6.76v-3.83h5.2c.16-.77.24-1.47.24-2.1 0-.61-.08-1.31-.24-2.1h-5.2v-2.96h6.6c.14-.83.22-1.54.22-2.13 0-.31-.02-.63-.05-.97-.04-.34-.09-.71-.16-1.1h-11.37v19.37h11.53c.15-.76.23-1.47.23-2.13zM0 66.53h1.36v-3.78h1.85v3.78h1.36v-4.88H0zm7.22-2.02v-2.86H5.86v4.88h1.3l2.01-2.86v2.86h1.35v-4.88H9.23zm4.17-1.76h1.5v3.78h1.36v-3.78h1.48v-1.1h-4.34zm7.55-1.19c-1.56 0-2.71 1.07-2.71 2.53 0 1.46 1.15 2.53 2.71 2.53s2.71-1.07 2.71-2.53c-.01-1.46-1.16-2.53-2.71-2.53zm0 3.92c-.74 0-1.32-.55-1.32-1.39 0-.84.58-1.39 1.32-1.39s1.32.55 1.32 1.39c-.01.84-.59 1.39-1.32 1.39zm8.2-3.83l-1.67 2.82-1.71-2.82h-1.14v4.88h1.27V64l1.25 2.05h.62l1.25-2.11v2.59h1.28l-.02-4.88zm3.79 2.92h2.17v-1.03h-2.17v-.82h2.46v-1.07h-3.82v4.88h3.91v-1.07h-2.55zm8.16-2.92h-1.35v3.78h-1.87v-3.78h-1.36v4.88h3.99v.99h1.26v-2.09h-.67zm7.39 2.33c.42-.21.66-.58.66-1.06 0-.81-.68-1.27-1.84-1.27h-2.37v4.87h2.5c1.25 0 1.93-.54 1.93-1.39 0-.58-.32-.97-.88-1.15zm-2.19-1.34h.88c.39 0 .58.17.58.48 0 .32-.19.48-.58.48h-.88v-.96zm1.08 2.9h-1.09v-1h1.09c.4 0 .6.16.6.49s-.2.51-.6.51zm9.82-3.89h-3.93l-.06 1.5c-.05 1.3-.21 2.26-.83 2.28h-.17v2.07h1.27v-.98h3.12v.98h1.26v-2.07h-.66v-3.78zm-1.36 3.78h-1.84c.29-.41.39-1.2.42-2.16l.02-.53h1.4v2.69zm5.32-3.87c-1.56 0-2.71 1.07-2.71 2.53 0 1.46 1.15 2.53 2.71 2.53s2.71-1.07 2.71-2.53c0-1.46-1.15-2.53-2.71-2.53zm0 3.92c-.74 0-1.32-.55-1.32-1.39 0-.84.58-1.39 1.32-1.39s1.32.55 1.32 1.39c-.01.84-.58 1.39-1.32 1.39zm8.2-3.83l-1.67 2.82-1.71-2.82h-1.13v4.88h1.26V64l1.26 2.05h.61l1.25-2.11.01 2.59h1.27l-.01-4.88zm3.8 2.92h2.16v-1.03h-2.16v-.82h2.45v-1.07h-3.82v4.88h3.91v-1.07h-2.54zm5.65-.54h2.03v1.02H76.8zm7.09-2.47c-.9 0-1.64.33-2.11.92l.87.79c.31-.37.7-.57 1.17-.57.58 0 1 .33 1.16.86h-1.75v1.02h1.76c-.15.56-.58.9-1.18.9-.47 0-.86-.2-1.17-.57l-.87.79c.47.59 1.2.92 2.11.92 1.5 0 2.57-1.05 2.57-2.53.01-1.48-1.07-2.53-2.56-2.53zm3.07 1.19h1.49v3.78h1.36v-3.78h1.49v-1.1h-4.34zm7.54-1.19c-1.56 0-2.71 1.07-2.71 2.53 0 1.46 1.15 2.53 2.71 2.53s2.71-1.07 2.71-2.53c0-1.46-1.15-2.53-2.71-2.53zm0 3.92c-.74 0-1.32-.55-1.32-1.39 0-.84.58-1.39 1.32-1.39.74 0 1.32.55 1.32 1.39 0 .84-.58 1.39-1.32 1.39zm8.82-1.71c-.24.11-.54.17-.86.17-.61 0-.92-.31-.92-.94v-1.34h-1.36v1.5c0 1.24.74 1.91 2.1 1.91.32 0 .66-.06 1.04-.19v1.66h1.36v-4.87h-1.36v2.1zm4.31-2.12l-2.15 4.87h1.41l.38-.95h2.06l.38.95h1.43l-2.16-4.87h-1.35zm.04 2.91l.63-1.56.63 1.56h-1.26zm6.65-1.86c.47 0 .84.2 1.15.57l.88-.79c-.47-.59-1.2-.92-2.09-.92-1.54 0-2.68 1.05-2.68 2.53 0 1.48 1.13 2.53 2.68 2.53.9 0 1.62-.33 2.09-.92l-.88-.79c-.31.37-.68.57-1.15.57-.8 0-1.36-.56-1.36-1.39 0-.84.56-1.39 1.36-1.39zm2.43.05h1.49v3.78h1.36v-3.78h1.49v-1.1h-4.34zm7.7.46h-1.13v-1.55h-1.36v4.87h2.3c1.27 0 2.05-.59 2.05-1.73.01-1.07-.68-1.59-1.86-1.59zm-.27 2.33h-.86v-1.35h.86c.47 0 .76.17.76.63 0 .46-.3.72-.76.72zm7.79-2.84c.47 0 .84.2 1.15.57l.88-.79c-.47-.59-1.2-.92-2.09-.92-1.54 0-2.68 1.05-2.68 2.53 0 1.48 1.13 2.53 2.68 2.53.9 0 1.62-.33 2.09-.92l-.88-.79c-.31.37-.68.57-1.15.57-.8 0-1.36-.56-1.36-1.39.01-.84.56-1.39 1.36-1.39zm4.25 1.87h2.17v-1.03h-2.17v-.82h2.46v-1.07h-3.82v4.88h3.91v-1.07h-2.55zm8.1-2.92l-1.67 2.82-1.71-2.82h-1.14v4.88h1.27V64l1.25 2.05h.61l1.26-2.11v2.59h1.28l-.02-4.88zm4.91 1.56h-1.13v-1.55h-1.36v4.87h2.3c1.27 0 2.05-.59 2.05-1.73.01-1.07-.68-1.59-1.86-1.59zm-.27 2.33h-.86v-1.35h.86c.47 0 .76.17.76.63 0 .46-.3.72-.76.72zm4.44-1.03v-2.86h-1.36v4.88h1.3l2.01-2.86v2.86h1.35v-4.88h-1.29z"/></svg>