<svg width="26" height="26" fill="none" xmlns="http://www.w3.org/2000/svg"><g clip-path="url(#clip0)" fill="#000"><path d="M25.318 20.059l-5.263-3.51a1.536 1.536 0 00-2.056.334l-1.533 1.971a.655.655 0 01-.84.177l-.292-.16c-.967-.527-2.17-1.183-4.593-3.607-2.423-2.425-3.08-3.628-3.607-4.593l-.16-.292a.656.656 0 01.173-.843l1.97-1.532c.63-.494.776-1.39.334-2.057L5.941.684A1.528 1.528 0 003.883.221l-2.2 1.322A3.104 3.104 0 00.266 3.38C-.526 6.267.07 11.25 7.41 18.59 13.25 24.43 17.596 26 20.584 26a7.682 7.682 0 002.037-.267 3.101 3.101 0 001.837-1.415l1.323-2.2c.421-.7.217-1.608-.463-2.06zm-.284 1.616l-1.32 2.2a2.24 2.24 0 01-1.321 1.025c-2.666.732-7.323.126-14.37-6.922C.976 10.931.37 6.275 1.102 3.61a2.243 2.243 0 011.025-1.323L4.328.966a.663.663 0 01.894.2L7.128 4.03l1.6 2.4a.667.667 0 01-.144.892l-1.97 1.533a1.516 1.516 0 00-.402 1.946l.156.284c.554 1.016 1.243 2.28 3.756 4.792 2.513 2.513 3.776 3.202 4.791 3.755l.285.157a1.517 1.517 0 001.946-.402l1.533-1.97a.667.667 0 01.892-.144l5.262 3.51a.66.66 0 01.201.893zM14.733 4.335a7.374 7.374 0 017.365 7.366.433.433 0 10.867 0 8.241 8.241 0 00-8.232-8.232.433.433 0 100 .866z"/><path d="M14.733 6.935a4.772 4.772 0 014.765 4.766.433.433 0 00.867 0 5.639 5.639 0 00-5.632-5.632.433.433 0 100 .866z"/><path d="M14.733 9.535a2.169 2.169 0 012.166 2.166.433.433 0 00.866 0 3.036 3.036 0 00-3.032-3.033.433.433 0 100 .867z"/></g><defs><clipPath id="clip0"><path fill="#fff" d="M0 0h26v26H0z"/></clipPath></defs></svg>