<svg width="27" height="27" fill="none" xmlns="http://www.w3.org/2000/svg"><path d="M13.5 4.402a.589.589 0 00.587-.587v-.293a.589.589 0 00-.587-.587.589.589 0 00-.587.587v.293c0 .323.264.587.587.587zm0 18.196a.589.589 0 00-.587.587v.293c0 .323.264.587.587.587a.589.589 0 00.587-.587v-.293a.589.589 0 00-.587-.587zm-9.685-9.685h-.293a.589.589 0 00-.587.587c0 .323.264.587.587.587h.293a.589.589 0 00.587-.587.589.589 0 00-.587-.587zm19.663 0h-.293a.589.589 0 00-.587.587c0 .323.264.587.587.587h.293a.589.589 0 00.587-.587.589.589 0 00-.587-.587zM6.867 6.046a.567.567 0 00-.821 0 .567.567 0 000 .821l.205.206a.58.58 0 00.411.176.58.58 0 00.41-.176.567.567 0 000-.822l-.205-.205zm-.616 13.881l-.205.206a.567.567 0 000 .821.58.58 0 00.41.176.58.58 0 00.411-.176l.206-.205a.567.567 0 000-.822.567.567 0 00-.822 0zM20.133 6.046l-.206.205a.567.567 0 000 .822.58.58 0 00.41.176.58.58 0 00.412-.176l.205-.206a.567.567 0 000-.821.567.567 0 00-.822 0zm-6.046 7.219V7.924a.589.589 0 00-.587-.587.589.589 0 00-.587.587V13.5a.58.58 0 00.176.41l6.427 6.428a.58.58 0 00.411.176.58.58 0 00.411-.176.567.567 0 000-.822l-6.251-6.25z" fill="#000"/><path d="M13.5 0C6.046 0 0 6.046 0 13.5S6.046 27 13.5 27 27 20.954 27 13.5 20.954 0 13.5 0zm0 25.826c-6.809 0-12.326-5.517-12.326-12.326S6.69 1.174 13.5 1.174 25.826 6.69 25.826 13.5 20.31 25.826 13.5 25.826z" fill="#000"/></svg>