<svg width="23" height="11" fill="none" xmlns="http://www.w3.org/2000/svg"><path d="M5.26 10.74c1.4 0 2.715-.544 3.705-1.534l2.537-2.536 2.536 2.536a5.205 5.205 0 003.705 1.535c1.4 0 2.715-.545 3.705-1.535a5.205 5.205 0 001.534-3.704c0-1.4-.545-2.716-1.534-3.705A5.205 5.205 0 0017.743.262c-1.4 0-2.715.545-3.705 1.535l-2.537 2.536-2.536-2.536A5.205 5.205 0 005.26.262c-1.4 0-2.715.545-3.705 1.535A5.205 5.205 0 00.021 5.502c0 1.399.545 2.715 1.534 3.704a5.205 5.205 0 003.705 1.535zm9.946-7.775a3.564 3.564 0 012.537-1.05 3.56 3.56 0 012.536 1.05 3.564 3.564 0 011.051 2.537c0 .958-.373 1.859-1.05 2.536a3.564 3.564 0 01-2.537 1.05 3.564 3.564 0 01-2.537-1.05L12.67 5.502l2.536-2.537zm-12.482 0a3.564 3.564 0 012.536-1.05c.958 0 1.86.372 2.537 1.05l2.536 2.537-2.536 2.536a3.564 3.564 0 01-2.537 1.05 3.563 3.563 0 01-2.537-1.05 3.564 3.564 0 01-1.05-2.536c0-.959.373-1.86 1.05-2.537z" fill="#424242"/><path d="M17.741 10.759a5.224 5.224 0 01-3.718-1.54L11.5 6.695 8.977 9.218a5.224 5.224 0 01-3.718 1.54 5.224 5.224 0 01-3.719-1.54A5.224 5.224 0 010 5.5c0-1.405.547-2.725 1.54-3.718A5.224 5.224 0 015.26.242a5.22 5.22 0 013.718 1.54L11.5 4.305l2.523-2.523a5.224 5.224 0 013.718-1.54c1.405 0 2.726.546 3.719 1.54A5.224 5.224 0 0123 5.5a5.224 5.224 0 01-1.54 3.719 5.224 5.224 0 01-3.719 1.54zM11.5 6.64l2.55 2.55a5.186 5.186 0 003.691 1.53 5.186 5.186 0 003.692-1.53A5.186 5.186 0 0022.96 5.5a5.186 5.186 0 00-1.528-3.691A5.186 5.186 0 0017.74.28a5.186 5.186 0 00-3.69 1.529l-2.55 2.55L8.95 1.81A5.186 5.186 0 005.259.28a5.186 5.186 0 00-3.692 1.529A5.186 5.186 0 00.04 5.5a5.19 5.19 0 001.528 3.691 5.186 5.186 0 003.692 1.53 5.186 5.186 0 003.69-1.53l2.551-2.55zm6.241 2.466a3.583 3.583 0 01-2.55-1.057l-2.55-2.55 2.55-2.55a3.583 3.583 0 012.55-1.057c.964 0 1.87.376 2.55 1.057a3.583 3.583 0 011.057 2.55c0 .963-.375 1.869-1.056 2.55a3.583 3.583 0 01-2.55 1.057zM12.695 5.5l2.523 2.523a3.545 3.545 0 002.523 1.045c.953 0 1.85-.371 2.523-1.045A3.544 3.544 0 0021.31 5.5a3.54 3.54 0 00-1.045-2.523 3.545 3.545 0 00-2.523-1.045c-.953 0-1.849.371-2.523 1.045L12.695 5.5zM5.26 9.107A3.58 3.58 0 012.71 8.05 3.583 3.583 0 011.651 5.5c0-.963.375-1.87 1.056-2.55a3.583 3.583 0 012.55-1.057c.964 0 1.87.376 2.55 1.057L10.36 5.5 7.81 8.05a3.583 3.583 0 01-2.55 1.057zm0-7.175c-.953 0-1.85.371-2.523 1.045A3.545 3.545 0 001.69 5.5c0 .953.37 1.85 1.045 2.523a3.545 3.545 0 002.523 1.045c.953 0 1.849-.371 2.523-1.045L10.305 5.5 7.782 2.977a3.545 3.545 0 00-2.523-1.045z" fill="#424242"/></svg>