<svg width="24" height="32" fill="none" xmlns="http://www.w3.org/2000/svg"><path d="M12 0C5.482 0 .179 5.303.179 11.82c0 2.147.962 4.455 1.003 4.552.31.738.924 1.884 1.366 2.555l8.105 12.281c.332.503.823.792 1.347.792s1.015-.289 1.347-.791l8.106-12.282a18.983 18.983 0 001.366-2.555c.04-.097 1.002-2.405 1.002-4.551C23.82 5.303 18.518 0 12 0zm9.537 15.832a17.46 17.46 0 01-1.246 2.33l-8.105 12.281c-.16.243-.211.243-.371 0L3.709 18.162a17.47 17.47 0 01-1.245-2.33c-.012-.029-.894-2.153-.894-4.011C1.57 6.07 6.249 1.39 12 1.39c5.751 0 10.43 4.679 10.43 10.43 0 1.86-.884 3.99-.893 4.011z" fill="#000"/><path d="M12 5.563a6.265 6.265 0 00-6.258 6.259A6.265 6.265 0 0012 18.08a6.265 6.265 0 006.258-6.258A6.265 6.265 0 0012 5.563zm0 11.126a4.873 4.873 0 01-4.868-4.867A4.873 4.873 0 0112 6.954a4.873 4.873 0 014.867 4.868A4.873 4.873 0 0112 16.689z" fill="#000"/></svg>