<svg width="103" height="25" fill="none" xmlns="http://www.w3.org/2000/svg"><mask id="mask0" style="mask-type:alpha" maskUnits="userSpaceOnUse" x="0" y="0" width="103" height="25"><g clip-path="url(#clip0)"><path d="M42.16 24.508v-4.803h.534v4.803h-.533zm1.228-4.803h4.803v.533H46.11v4.27h-.64v-4.27h-2.082v-.533zm13.129.907h.64l-1.44 3.842h-.481l-1.441-3.202-1.388 3.202h-.48l-1.44-3.842h.533l1.174 2.828 1.227-2.828h.694l1.334 2.828 1.068-2.828zm6.243-.054h2.242v.534h-2.135c-.053 0-.16 0-.213.054-.053.053-.053.16-.053.213v3.042h-.534v-3.042c0-.213.053-.427.213-.534.107-.106.267-.267.48-.267zm5.764.054h.694l-1.76 1.921 1.76 1.921h-.694L66.977 22.8h-1.068v1.654h-.533v-5.07h.533v2.882h1.068l1.547-1.654zm4.91.748l-.534.052v-.053c0-.053 0-.16-.053-.213-.053-.054-.16-.054-.213-.054h-2.349c-.053 0-.16 0-.213.054-.053.053-.053.16-.053.213V22c0 .054 0 .16.053.214.053.053.16.053.213.053h2.295c.214 0 .427.054.534.214.16.16.213.373.213.587v.64c0 .214-.053.427-.213.587a.765.765 0 01-.534.214h-2.294c-.214 0-.427-.054-.534-.214-.16-.16-.214-.373-.214-.587v-.053h.534v.053c0 .054 0 .16.053.214.054.053.16.053.214.053h2.295c.053 0 .16 0 .213-.053.053-.054.053-.16.053-.214v-.64c0-.053 0-.16-.053-.214-.053-.053-.16-.053-.213-.053h-2.295c-.214 0-.427-.053-.534-.213-.16-.16-.213-.374-.213-.587v-.64c0-.214.053-.428.213-.588a.764.764 0 01.534-.213h2.295c.213 0 .427.053.533.213.107.16.267.374.267.587zm-12.328-.535c-.16-.16-.32-.213-.587-.213h-2.241c-.214 0-.427.053-.587.213-.16.16-.214.32-.214.587v2.242c0 .213.054.427.214.587.16.16.32.213.587.213h2.241c.214 0 .427-.053.587-.213.16-.16.214-.32.214-.587v-2.295c0-.213-.107-.374-.214-.534zm-.32 2.829c0 .053 0 .16-.053.16-.054 0-.107.053-.16.053H58.33c-.053 0-.16 0-.16-.053s-.053-.107-.053-.16v-2.242c0-.053 0-.16.053-.16.053-.053.107-.053.16-.053h2.242c.053 0 .16 0 .16.053 0 .054.053.107.053.16v2.242z" fill="#545554"/><path d="M14.303 3.908v.533h-1.601v-.533c0-.214-.054-.427-.214-.534a.765.765 0 00-.534-.213H2.348c-.213 0-.373.053-.48.213a.65.65 0 00-.267.534v9.606c0 .213.053.427.214.534.213.16.373.213.533.213h9.606c.214 0 .427-.053.534-.213a.765.765 0 00.214-.534V9.938H9.126V8.284h5.177v5.23c0 .694-.214 1.228-.694 1.654-.48.48-1.068.694-1.655.694H2.348c-.694 0-1.227-.213-1.654-.694A2.304 2.304 0 010 13.514V3.908c0-.694.213-1.228.694-1.655a2.304 2.304 0 011.654-.693h9.606c.694 0 1.228.213 1.655.693.48.427.694 1.068.694 1.655zm11.474.427c.693 0 1.227.213 1.76.694.481.48.695 1.067.695 1.76v4.163h-10.14v2.562c0 .213.053.427.213.534.16.16.374.213.534.213h9.393v1.655h-9.393c-.694 0-1.228-.214-1.761-.694-.48-.48-.694-1.068-.694-1.761V6.683c0-.694.213-1.228.694-1.761.48-.48 1.067-.694 1.76-.694h6.939v.107zm-7.685 4.963h8.485V6.736c0-.213-.053-.427-.213-.533-.16-.107-.374-.214-.534-.214h-6.938c-.213 0-.427.053-.534.214a.765.765 0 00-.213.533c-.053 0-.053 2.562-.053 2.562zm21.614-4.963c.694 0 1.227.213 1.76.694.481.48.695 1.067.695 1.76v9.18h-1.655v-9.18c0-.213-.053-.426-.213-.533-.214-.214-.374-.267-.534-.267h-6.938c-.213 0-.427.053-.533.214-.107.16-.214.373-.214.533v9.18H30.42V4.335h9.286zm4.483 1.601V4.335h11.74v2.241l-9.98 7.739h10.034v1.654H44.189v-2.242l10.033-7.791H44.189zM58.118.492h1.654v1.655h-1.654V.492zm0 15.423V4.335h1.654v11.58h-1.654zm15.85-9.125v.16h-1.654v-.16c0-.214-.054-.427-.214-.534-.16-.107-.373-.214-.534-.214h-6.938c-.213 0-.426.054-.533.214a.764.764 0 00-.214.534v1.814c0 .214.054.427.214.534.16.16.373.213.534.213h6.937c.694 0 1.228.214 1.761.694.534.48.694 1.067.694 1.761v1.815c0 .694-.213 1.227-.694 1.76-.48.481-1.067.695-1.76.695h-6.938c-.694 0-1.228-.214-1.762-.694-.48-.48-.693-1.067-.693-1.761v-.16h1.654v.16c0 .213.053.427.213.533.16.16.374.214.534.214h6.938c.213 0 .427-.053.534-.214.106-.16.213-.373.213-.533v-1.815c0-.213-.053-.427-.213-.533a.765.765 0 00-.534-.214h-6.938c-.694 0-1.227-.213-1.761-.694-.48-.48-.694-1.067-.694-1.76V6.79c0-.694.214-1.228.694-1.761.48-.48 1.067-.694 1.761-.694h6.938c.694 0 1.227.213 1.761.694.427.48.694 1.067.694 1.76z" fill="#263D88"/><path d="M78.61.492h-1.013v24.016h1.014V.492zm24.123 12.061L82.026 24.508V.599l9.927 5.71-.64 1.014L83.2 2.68v19.746l17.131-9.873-5.177-2.988-5.924 3.415-.587-1.014 6.511-3.735 7.578 4.322z" fill="#545554"/></g></mask><g mask="url(#mask0)"><path fill="#fff" d="M-.591.492H103v24.015H-.591z"/></g><defs><clipPath id="clip0"><path fill="#fff" transform="translate(0 .492)" d="M0 0h103v24.015H0z"/></clipPath></defs></svg>