<svg width="33" height="34" fill="none" xmlns="http://www.w3.org/2000/svg"><path d="M31.662 27.338H1.338a.446.446 0 01-.446-.446V7.11a.446.446 0 01.446-.446h30.324a.446.446 0 01.446.446v19.782a.446.446 0 01-.446.446zm-29.878-.892h29.432V7.556H1.784v18.89z" fill="#000"/><path d="M16.5 19.546a6.446 6.446 0 01-4.426-1.749L1.032 7.424a.446.446 0 01.611-.65l11.042 10.373a5.583 5.583 0 007.63 0L31.357 6.774a.446.446 0 11.61.65l-11.04 10.374a6.445 6.445 0 01-4.426 1.748z" fill="#000"/><path d="M1.338 27.335a.446.446 0 01-.286-.788l11.152-9.314a.445.445 0 01.732.381.446.446 0 01-.16.303L1.623 27.231a.446.446 0 01-.286.104zm30.324 0a.446.446 0 01-.286-.104l-11.152-9.314a.446.446 0 11.572-.684l11.152 9.314a.446.446 0 01-.286.788z" fill="#000"/></svg>