<svg width="18" height="18" fill="none" xmlns="http://www.w3.org/2000/svg"><path d="M9 16.945a7.945 7.945 0 100-15.89 7.945 7.945 0 000 15.89z" fill="#FF7F40"/><path d="M16.945 9c0 4.366-3.579 7.945-7.945 7.945V1.055c4.366 0 7.945 3.579 7.945 7.945z" fill="#F25A3C"/><path d="M11.237 9l1.865-1.865a.527.527 0 000-.745L11.61 4.898a.527.527 0 00-.746 0L9 6.763 7.135 4.898a.527.527 0 00-.745 0L4.898 6.39a.527.527 0 000 .745L6.763 9l-1.865 1.864a.527.527 0 000 .746l1.492 1.492c.205.206.54.206.745 0L9 11.237l1.864 1.865c.206.206.54.206.746 0l1.492-1.492a.527.527 0 000-.746L11.237 9z" fill="#F3F5F9"/><path d="M11.61 13.102l1.492-1.492a.527.527 0 000-.746L11.237 9l1.865-1.865a.527.527 0 000-.745L11.61 4.898a.527.527 0 00-.746 0L9 6.763v4.474l1.864 1.865c.206.206.54.206.746 0z" fill="#E1E6F0"/></svg>