<svg width="51" height="51" fill="none" xmlns="http://www.w3.org/2000/svg"><g clip-path="url(#clip0)" fill="#000"><path d="M41.552 3.624h-2.026V1.158a1.158 1.158 0 10-2.315 0v2.477H13.835V1.158a1.158 1.158 0 10-2.315 0v2.477H9.552a5.791 5.791 0 00-5.79 5.79V45.21A5.791 5.791 0 009.553 51h31.99a5.791 5.791 0 005.788-5.789V9.413a5.789 5.789 0 00-5.778-5.79zm3.474 41.575a3.483 3.483 0 01-3.474 3.474h-32a3.483 3.483 0 01-3.474-3.474V9.413a3.483 3.483 0 013.474-3.474h1.968v1.795a1.158 1.158 0 102.315 0V5.939h23.376v1.795a1.158 1.158 0 002.315 0V5.939h2.026a3.483 3.483 0 013.474 3.474v35.786z"/><path d="M18.49 24.545l-4.272 4.075-1.969-1.968a1.154 1.154 0 10-1.632 1.633l2.767 2.767c.217.218.514.34.822.335.299.003.586-.114.799-.324l5.082-4.862a1.151 1.151 0 10-1.597-1.656zm21.187 2.107H26.362a1.158 1.158 0 100 2.315h13.315a1.158 1.158 0 100-2.315zM18.49 12.967l-4.272 4.075-1.969-1.968a1.154 1.154 0 10-1.632 1.633l2.767 2.767c.217.219.514.34.822.336.299.002.586-.114.799-.325l5.082-4.862a1.151 1.151 0 10-1.597-1.656zm21.187 2.107H26.362a1.158 1.158 0 100 2.316h13.315a1.158 1.158 0 100-2.316zM18.49 36.123l-4.272 4.075-1.969-1.968a1.154 1.154 0 10-1.632 1.632l2.767 2.767c.217.22.514.34.822.336.299.003.586-.114.799-.324l5.082-4.863a1.151 1.151 0 10-1.597-1.655zm21.187 2.107H26.362a1.158 1.158 0 100 2.315h13.315a1.158 1.158 0 100-2.315z"/></g><defs><clipPath id="clip0"><path fill="#fff" d="M0 0h51v51H0z"/></clipPath></defs></svg>