<svg width="50" height="50" fill="none" xmlns="http://www.w3.org/2000/svg"><g clip-path="url(#clip0)" fill="#000"><path d="M9.375 45.315a.78.78 0 01-.781-.782 7.04 7.04 0 017.033-7.032.78.78 0 110 1.562 5.477 5.477 0 00-5.47 5.47.78.78 0 01-.782.782zm31.25-.001a.78.78 0 01-.781-.781 5.476 5.476 0 00-5.469-5.469.78.78 0 110-1.563 7.039 7.039 0 017.031 7.032.78.78 0 01-.781.781z"/><path d="M15.627 39.063a.781.781 0 110-1.562l2.342-.001a.78.78 0 110 1.563h-2.343zM9.376 49.219a.781.781 0 01-.781-.782l-.001-3.903a.781.781 0 111.562 0l.001 3.904a.781.781 0 01-.781.78z"/><path d="M10.157 50c-.862 0-1.562-.7-1.562-1.563a.78.78 0 111.562 0v.002a.78.78 0 110 1.561zm29.687 0a.78.78 0 110-1.563h.001a.78.78 0 111.561 0c0 .862-.7 1.563-1.562 1.563z"/><path d="M40.625 49.219a.78.78 0 01-.781-.782v-3.904a.78.78 0 111.562 0v3.904a.78.78 0 01-.781.782z"/><path d="M39.844 50H10.157a.78.78 0 110-1.563h29.687a.78.78 0 110 1.563zM19.53 37.5a.781.781 0 01-.698-1.13l.782-1.563a.782.782 0 011.398.7l-.782 1.562a.782.782 0 01-.7.431zm10.94 0a.783.783 0 01-.7-.431l-.784-1.563a.781.781 0 111.396-.7l.784 1.562a.781.781 0 01-.697 1.132zm-9.522 3.126a.78.78 0 01-.392-1.457l4.053-2.345a.782.782 0 01.783 1.352l-4.054 2.345a.775.775 0 01-.39.105z"/><path d="M29.1 40.627a.773.773 0 01-.387-.104l-4.1-2.345a.782.782 0 01.775-1.356l4.1 2.345a.782.782 0 01-.388 1.46zm-12.694 0a.78.78 0 01-.552-1.334l3.125-3.127a.78.78 0 111.105 1.105l-3.125 3.127a.78.78 0 01-.553.229z"/><path d="M19.531 43.75a.78.78 0 01-.552-.229l-3.125-3.123a.78.78 0 111.105-1.105l3.125 3.123a.78.78 0 01-.553 1.334z"/><path d="M17.969 45.313a.78.78 0 01-.553-1.334l1.563-1.563a.78.78 0 111.105 1.105l-1.563 1.563a.78.78 0 01-.552.228z"/><path d="M22.656 50a.78.78 0 01-.552-.229l-4.688-4.687a.78.78 0 111.105-1.105l4.688 4.687A.78.78 0 0122.656 50zM25 50a.781.781 0 01-.716-.469l-5.468-12.5a.78.78 0 111.431-.625l5.469 12.5A.78.78 0 0125 50zm8.594-9.373a.78.78 0 01-.553-.23l-3.125-3.126a.78.78 0 111.105-1.105l3.125 3.127a.78.78 0 01-.552 1.334z"/><path d="M30.469 43.75a.78.78 0 01-.553-1.334l3.125-3.123a.78.78 0 111.105 1.105l-3.125 3.123a.78.78 0 01-.552.229z"/><path d="M32.031 45.313a.78.78 0 01-.552-.23l-1.563-1.562a.78.78 0 111.105-1.105l1.563 1.563a.78.78 0 01-.553 1.334z"/><path d="M27.344 50a.78.78 0 01-.553-1.334l4.688-4.687a.78.78 0 111.105 1.105l-4.688 4.687a.78.78 0 01-.552.229zM25 50a.78.78 0 01-.715-1.094l5.468-12.5a.78.78 0 111.431.625l-5.468 12.5a.781.781 0 01-.717.469zm9.375-10.936h-2.344a.78.78 0 110-1.563h2.344a.78.78 0 110 1.563zM22.95 45.312a.783.783 0 01-.744-1.023l1.269-3.904a.783.783 0 01.984-.502c.41.133.636.574.503.984l-1.269 3.905a.782.782 0 01-.743.54z"/><path d="M27.05 45.314a.783.783 0 01-.743-.54l-1.269-3.907a.782.782 0 011.487-.483l1.269 3.908a.781.781 0 01-.744 1.022z"/><path d="M25.781 41.408H24.22a.78.78 0 110-1.563h1.562a.78.78 0 110 1.563z"/><path d="M25.781 41.408a.78.78 0 01-.588-1.295l1.563-1.786a.78.78 0 111.176 1.028l-1.563 1.786a.777.777 0 01-.588.267z"/><path d="M24.219 41.408a.78.78 0 01-.586-.264l-1.563-1.77a.782.782 0 011.172-1.035l1.563 1.77a.782.782 0 01-.586 1.299zm5.465-5.47h-9.372a.78.78 0 110-1.563h9.372a.78.78 0 110 1.563z"/><path d="M22.656 35.938a.78.78 0 01-.781-.782v-3.3a.78.78 0 111.563 0v3.3a.78.78 0 01-.782.782zm4.684 0a.78.78 0 01-.78-.782v-3.3a.78.78 0 111.562 0v3.3a.78.78 0 01-.781.782z"/><path d="M25 32.813c-9.046 0-16.406-7.36-16.406-16.407C8.594 7.36 15.954 0 25 0s16.406 7.36 16.406 16.406S34.046 32.813 25 32.813zm0-31.25c-8.185 0-14.844 6.658-14.844 14.843 0 8.185 6.659 14.844 14.844 14.844 8.185 0 14.844-6.659 14.844-14.844 0-8.185-6.659-14.843-14.844-14.843z"/><path d="M25 30.469c-7.754 0-14.063-6.309-14.063-14.063 0-7.753 6.31-14.062 14.063-14.062 7.754 0 14.063 6.309 14.063 14.062 0 7.754-6.31 14.063-14.063 14.063zm0-26.563c-6.892 0-12.5 5.608-12.5 12.5s5.608 12.5 12.5 12.5 12.5-5.608 12.5-12.5-5.608-12.5-12.5-12.5z"/><path d="M35.156 17.188a.78.78 0 01-.781-.782c0-5.17-4.205-9.375-9.375-9.375a.78.78 0 110-1.562c6.031 0 10.938 4.906 10.938 10.937a.78.78 0 01-.782.782z"/></g><defs><clipPath id="clip0"><path fill="#fff" d="M0 0h50v50H0z"/></clipPath></defs></svg>