<svg width="47" height="47" fill="none" xmlns="http://www.w3.org/2000/svg"><path fill-rule="evenodd" clip-rule="evenodd" d="M47 23.5C47 10.542 36.458 0 23.5 0S0 10.542 0 23.5c0 3.524.781 6.869 2.177 9.872a.94.94 0 00.045.115 23.544 23.544 0 008.518 9.75 23.367 23.367 0 009.14 3.484l.091.014c.175.026.35.052.526.074l.018.002c.178.023.357.043.535.062l.133.013c.142.014.283.026.424.038l.13.01c.176.013.351.024.527.033l.109.005A25.706 25.706 0 0023.5 47a24.833 24.833 0 001.127-.028l.109-.005c.176-.009.351-.02.527-.033l.13-.01c.141-.012.282-.024.424-.038l.133-.013c.178-.019.357-.039.535-.062l.017-.002c.176-.022.352-.047.527-.074l.091-.014a23.366 23.366 0 009.14-3.484 23.545 23.545 0 008.518-9.75.937.937 0 00.045-.115A23.361 23.361 0 0047 23.5zM23.5 1.836c11.946 0 21.664 9.718 21.664 21.664 0 3.084-.65 6.02-1.816 8.678H27.172a.918.918 0 000 1.836h15.264a21.798 21.798 0 01-4.14 5.294l-.102.096c-3.583 3.297-8.232 5.359-13.193 5.707a29.525 29.525 0 01-.864.043l-.153.004a21.616 21.616 0 01-1.474-.017 22.09 22.09 0 01-.346-.02l-.165-.01a21.78 21.78 0 01-13.19-5.705l-.113-.105-.162-.151a21.809 21.809 0 01-3.97-5.136h15.264a.918.918 0 100-1.836H3.652A21.543 21.543 0 011.836 23.5c0-11.946 9.718-21.664 21.664-21.664z" fill="#000"/><path fill-rule="evenodd" clip-rule="evenodd" d="M23.5 28.82a5.327 5.327 0 005.136-6.715L24.389 5.698a.918.918 0 00-1.777 0l-4.263 16.466A5.327 5.327 0 0023.5 28.82zm-3.374-6.196L23.5 9.59l3.374 13.033a3.489 3.489 0 01-3.374 4.361 3.489 3.489 0 01-3.374-4.361zm17.144.876c0 .507.41.918.918.918h4.023a.918.918 0 100-1.836h-4.023a.918.918 0 00-.918.918zm-1.047-6.427c.155 0 .313-.04.458-.123l3.482-2.01a.918.918 0 10-.918-1.59l-3.482 2.01a.918.918 0 00.46 1.713zM4.79 24.418h4.022a.918.918 0 100-1.836H4.79a.918.918 0 100 1.836zm2.047-9.478l3.482 2.01a.916.916 0 001.254-.336c.254-.44.103-1-.336-1.254l-3.482-2.01a.918.918 0 10-.918 1.59zm23.549-3.367a.918.918 0 001.254-.336l2.01-3.482a.918.918 0 10-1.59-.918l-2.01 3.482a.918.918 0 00.336 1.254zm-15.026-.336a.917.917 0 101.59-.918l-2.01-3.482a.918.918 0 10-1.59.918l2.01 3.482zm.884 27.947a3.101 3.101 0 003.098 3.098h8.316a3.101 3.101 0 003.098-3.098 3.101 3.101 0 00-3.098-3.097h-8.317a3.101 3.101 0 00-3.097 3.097zm12.676 0c0 .696-.566 1.262-1.262 1.262h-8.317a1.263 1.263 0 01-1.261-1.262c0-.696.566-1.261 1.262-1.261h8.316c.696 0 1.262.565 1.262 1.261zm-4.502-6.088a.92.92 0 00-.918-.918.92.92 0 00-.918.918.92.92 0 00.918.918.92.92 0 00.918-.918z" fill="#000"/></svg>