<svg height="512" viewBox="0 0 64 64" width="512" xmlns="http://www.w3.org/2000/svg"><g id="up-direction-arrow-button-top"><path d="M57 3H7a4 4 0 00-4 4v50a4 4 0 004 4h50a4 4 0 004-4V7a4 4 0 00-4-4zM17 42l15-28 15 28z" fill="#9bc9ff"/><g fill="#1e81ce"><path d="M57 62H7a5.006 5.006 0 01-5-5V7a5.006 5.006 0 015-5h50a5.006 5.006 0 015 5v50a5.006 5.006 0 01-5 5zM7 4a3 3 0 00-3 3v50a3 3 0 003 3h50a3 3 0 003-3V7a3 3 0 00-3-3z"/><path d="M47 43H17a1 1 0 01-.881-1.472l15-28a1.039 1.039 0 011.762 0l15 28A1 1 0 0147 43zm-28.33-2h26.66L32 16.118z"/></g></g></svg>