<svg width="16" height="16" fill="none" xmlns="http://www.w3.org/2000/svg"><path d="M8 16A8 8 0 108 0a8 8 0 000 16z" fill="#32BA7C"/><path d="M5.956 11.609l4.113 4.113C13.476 14.814 16 11.71 16 8v-.227l-3.23-2.978-6.814 6.814z" fill="#0AA06E"/><path d="M8.202 9.792a.945.945 0 010 1.312l-.732.732a.945.945 0 01-1.312 0l-3.205-3.23a.945.945 0 010-1.313l.732-.731a.945.945 0 011.312 0l3.205 3.23z" fill="#fff"/><path d="M11.003 4.214a.945.945 0 011.312 0l.732.732a.945.945 0 010 1.313l-5.552 5.526a.945.945 0 01-1.312 0l-.732-.731a.945.945 0 010-1.313l5.552-5.527z" fill="#fff"/></svg>